<?xml version="1.0" encoding="UTF-8" standalone="no"?>
<!-- Created with Inkscape (http://www.inkscape.org/) -->

<svg
   xmlns:dc="http://purl.org/dc/elements/1.1/"
   xmlns:cc="http://creativecommons.org/ns#"
   xmlns:rdf="http://www.w3.org/1999/02/22-rdf-syntax-ns#"
   xmlns:svg="http://www.w3.org/2000/svg"
   xmlns="http://www.w3.org/2000/svg"
   xmlns:sodipodi="http://sodipodi.sourceforge.net/DTD/sodipodi-0.dtd"
   xmlns:inkscape="http://www.inkscape.org/namespaces/inkscape"
   width="210mm"
   height="297mm"
   viewBox="0 0 744.09448819 1052.3622047"
   id="svg2"
   version="1.1"
   inkscape:version="0.91 r13725"
   sodipodi:docname="goat-head.svg">
  <defs
     id="defs4" />
  <sodipodi:namedview
     id="base"
     pagecolor="#ffffff"
     bordercolor="#666666"
     borderopacity="1.0"
     inkscape:pageopacity="0.0"
     inkscape:pageshadow="2"
     inkscape:zoom="0.98994949"
     inkscape:cx="395.93581"
     inkscape:cy="726.41884"
     inkscape:document-units="px"
     inkscape:current-layer="layer1"
     showgrid="false"
     inkscape:window-width="1366"
     inkscape:window-height="744"
     inkscape:window-x="0"
     inkscape:window-y="24"
     inkscape:window-maximized="1" />
  <metadata
     id="metadata7">
    <rdf:RDF>
      <cc:Work
         rdf:about="">
        <dc:format>image/svg+xml</dc:format>
        <dc:type
           rdf:resource="http://purl.org/dc/dcmitype/StillImage" />
        <dc:title></dc:title>
      </cc:Work>
    </rdf:RDF>
  </metadata>
  <g
     inkscape:label="Layer 1"
     inkscape:groupmode="layer"
     id="layer1">
    <path
       style="opacity:1;fill:#fafafa;fill-opacity:1;stroke:#7d7b7b;stroke-width:12;stroke-linecap:round;stroke-linejoin:round;stroke-miterlimit:4;stroke-dasharray:none;stroke-opacity:1"
       id="path5756"
       sodipodi:type="arc"
       sodipodi:cx="483.34268"
       sodipodi:cy="254.42197"
       sodipodi:rx="86.338806"
       sodipodi:ry="114.14235"
       sodipodi:start="0"
       sodipodi:end="6.2417545"
       sodipodi:open="true"
       d="M 569.68149,254.42197 A 86.338806,114.14235 0 0 1 484.23694,368.55819 86.338806,114.14235 0 0 1 397.0224,256.7863 86.338806,114.14235 0 0 1 480.6603,140.33472 86.338806,114.14235 0 0 1 569.6074,249.69431" />
    <path
       style="fill:#fafafa;fill-opacity:1;fill-rule:evenodd;stroke:#7d7b7b;stroke-width:12;stroke-linecap:round;stroke-linejoin:round;stroke-miterlimit:4;stroke-dasharray:none;stroke-opacity:1"
       d="m 469.23645,43.865507 c 0,0 -42.68485,33.178247 -53.40816,83.049943 -7.97017,54.41129 28.15434,101.80797 28.15434,101.80797 l -61.6193,-57.57869 c 0,0 -2.0203,-40.02031 19.1929,-68.30457 18.28666,-35.994724 67.68022,-58.974653 67.68022,-58.974653 z"
       id="path4178-7"
       inkscape:connector-curvature="0"
       sodipodi:nodetypes="cccccc" />
    <path
       style="fill:#fafafa;fill-opacity:1;fill-rule:evenodd;stroke:#7d7b7b;stroke-width:12;stroke-linecap:round;stroke-linejoin:round;stroke-miterlimit:4;stroke-dasharray:none;stroke-opacity:1"
       d="m 264.23387,48.817821 c 0,0 42.68485,33.178248 53.40816,83.049949 7.97017,54.41129 -28.15434,101.80797 -28.15434,101.80797 l 61.6193,-57.57869 c 0,0 2.0203,-40.02031 -19.1929,-68.30457 C 313.62743,71.797751 264.23387,48.817821 264.23387,48.817821 Z"
       id="path4178-7-3"
       inkscape:connector-curvature="0"
       sodipodi:nodetypes="cccccc" />
    <path
       style="fill:#fafafa;fill-opacity:1;fill-rule:evenodd;stroke:#7d7b7b;stroke-width:12;stroke-linecap:round;stroke-linejoin:round;stroke-miterlimit:4;stroke-dasharray:none;stroke-opacity:1"
       d="m 443.14285,211.64792 c 0.71429,2.85715 -7.02935,45.14351 7.14286,42.14286 l 25,-30 L 491.1859,206.77479 516,180.21935 c -38.57143,4.28572 -72.85715,31.42857 -72.85715,31.42857 z"
       id="path5711"
       inkscape:connector-curvature="0"
       sodipodi:nodetypes="cccccc" />
    <path
       style="fill:#fafafa;fill-opacity:1;fill-rule:evenodd;stroke:#7d7b7b;stroke-width:12;stroke-linecap:round;stroke-linejoin:round;stroke-miterlimit:4;stroke-dasharray:none;stroke-opacity:1"
       d="m 291.54583,204.37763 c -0.71429,2.85715 7.02935,45.14351 -7.14286,42.14286 l -25,-30 -15.90019,-17.01599 -24.8141,-26.55544 c 38.57143,4.28572 72.85715,31.42857 72.85715,31.42857 z"
       id="path5711-5"
       inkscape:connector-curvature="0"
       sodipodi:nodetypes="cccccc" />
    <path
       style="opacity:1;fill:#fafafa;fill-opacity:1;stroke:#7d7b7b;stroke-width:12;stroke-miterlimit:4;stroke-dasharray:none;stroke-opacity:1"
       d="m 446.9652,257.90501 c -7.63561,28.68472 -20.06203,40.46604 -31.02451,59.02617 -10.9406,18.52308 -25.56744,38.91526 -45.59195,44.53738 -1.9749,0.55447 -0.42069,0.13533 -2.46973,0.13533 -29.59817,0 -29.08448,-6.69475 -50.72904,-42.67312 -13.22542,-21.98377 -24.01243,-26.1109 -32.28903,-57.77324 -14.84652,-56.79578 28.32691,-83.48701 73.97746,-83.48701 45.65054,0 102.1205,27.66432 88.1268,80.23449 z"
       id="path4136"
       inkscape:connector-curvature="0"
       sodipodi:nodetypes="ssssssss" />
    <path
       style="fill:#fafafa;fill-opacity:1;fill-rule:evenodd;stroke:#7d7b7b;stroke-width:12;stroke-linecap:butt;stroke-linejoin:miter;stroke-miterlimit:4;stroke-dasharray:none;stroke-opacity:1"
       d="m 332.31988,376.7529 c 0,5.05076 13.13199,67.68022 13.13199,67.68022 0,0 16.16244,-29.29443 14.14213,-25.25382 -2.0203,4.04061 5.05076,58.58885 5.05076,58.58885 0,0 12.12183,-89.90357 10.10153,-84.85281 -2.02031,5.05076 11.11168,64.64976 11.11168,60.60915 0,-4.04061 11.11167,-71.72083 11.11167,-71.72083 l -37.37564,6.06092 z"
       id="path4157"
       inkscape:connector-curvature="0"
       sodipodi:nodetypes="ccscssccc" />
    <ellipse
       style="opacity:1;fill:#fafafa;fill-opacity:1;stroke:#7d7b7b;stroke-width:12;stroke-miterlimit:4;stroke-dasharray:none;stroke-opacity:1"
       id="path4138"
       ry="53.06361"
       rx="39.18145"
       cy="342.1666"
       cx="364.80719" />
    <ellipse
       style="opacity:1;fill:#fafafa;fill-opacity:1;stroke:#7d7b7b;stroke-width:12;stroke-miterlimit:4;stroke-dasharray:none;stroke-opacity:1"
       id="path4159-6"
       cx="420.53308"
       cy="240.67816"
       rx="16.162441"
       ry="13.305299" />
    <rect
       style="opacity:1;fill:#fafafa;fill-opacity:1;stroke:#7d7b7b;stroke-width:7.70287085;stroke-linejoin:round;stroke-miterlimit:4;stroke-dasharray:none;stroke-opacity:1"
       id="rect4176"
       width="56.162628"
       height="10.194516"
       x="336.72662"
       y="348.16254"
       ry="1.375638" />
    <ellipse
       style="opacity:1;fill:#fafafa;fill-opacity:1;stroke:#7d7b7b;stroke-width:12;stroke-miterlimit:4;stroke-dasharray:none;stroke-opacity:1"
       id="path4159-6-5"
       cx="311.7753"
       cy="236.94429"
       rx="16.162441"
       ry="13.305299" />
    <path
       style="fill:#fafafa;fill-opacity:1;fill-rule:evenodd;stroke:#7d7b7b;stroke-width:12;stroke-linecap:round;stroke-linejoin:round;stroke-miterlimit:4;stroke-dasharray:none;stroke-opacity:1"
       d="m 344.05843,309.4155 c 2.09662,0 39.31167,1.43188 39.31167,1.43188 0,0 -19.91792,28.16032 -22.53869,27.20572 -2.62078,-0.95457 -16.77298,-28.6376 -16.77298,-28.6376 z"
       id="path4264"
       inkscape:connector-curvature="0" />
  </g>
</svg>
