<?xml version="1.0" encoding="UTF-8"?>
<svg width="100mm" height="100mm" version="1.1" viewBox="0 0 354.33067 354.33071" xmlns="http://www.w3.org/2000/svg">
<g fill="#fafafa" stroke="#7d7b7b">
<path d="m346 175.71a82.377 90.609 0 0 1 -81.524 90.604 82.377 90.609 0 0 1 -83.213 -88.727 82.377 90.609 0 0 1 79.8 -92.442 82.377 90.609 0 0 1 84.866 86.812" stroke-linecap="round" stroke-linejoin="round" stroke-width="10.444"/>
<path d="m250.17 8.5682s-40.726 26.338-50.958 65.927c-7.6045 43.193 26.862 80.817 26.862 80.817l-58.792-45.707s-1.9276-31.769 18.312-54.222c17.448-28.573 64.575-46.815 64.575-46.815z" fill-rule="evenodd" stroke-linecap="round" stroke-linejoin="round" stroke-width="10.444"/>
<path d="m54.572 12.499s40.726 26.338 50.958 65.927c7.6045 43.193-26.863 80.817-26.863 80.817l58.792-45.707s1.9276-31.769-18.312-54.222c-17.448-28.573-64.575-46.815-64.575-46.815z" fill-rule="evenodd" stroke-linecap="round" stroke-linejoin="round" stroke-width="10.444"/>
<path d="m225.27 141.76c0.68151 2.2681-6.7068 35.836 6.8151 33.454l23.853-23.815 15.171-13.508 23.676-21.08c-36.802 3.4021-69.514 24.949-69.514 24.949z" fill-rule="evenodd" stroke-linecap="round" stroke-linejoin="round" stroke-width="10.444"/>
<path d="m80.63 135.99c-0.68152 2.2681 6.7068 35.836-6.8151 33.454l-23.853-23.815-15.171-13.508-23.676-21.08c36.802 3.4021 69.514 24.949 69.514 24.949z" fill-rule="evenodd" stroke-linecap="round" stroke-linejoin="round" stroke-width="10.444"/>
<path d="m228.92 178.48c-7.2853 22.771-19.142 32.123-29.601 46.856-10.439 14.704-24.394 30.892-43.5 35.355-1.8843 0.44014-0.40139 0.10743-2.3564 0.10743-28.24 0-27.75-5.3144-48.401-33.875-12.619-17.451-22.911-20.727-30.807-45.862-14.165-45.086 27.027-66.274 70.583-66.274s97.435 21.96 84.083 63.692z" stroke-width="10.444"/>
<path d="m119.53 272.82c0 4.0094 12.529 53.726 12.529 53.726s15.421-23.255 13.493-20.047c-1.9276 3.2075 4.819 46.509 4.819 46.509s11.566-71.367 9.638-67.358c-1.9276 4.0094 10.602 51.32 10.602 48.113 0-3.2075 10.602-56.933 10.602-56.933l-35.661 4.8113z" fill-rule="evenodd" stroke-width="10.444"/>
<ellipse cx="150.53" cy="245.37" rx="37.384" ry="42.123" stroke-width="10.444"/>
<ellipse cx="203.7" cy="164.8" rx="15.421" ry="10.562" stroke-width="10.444"/>
<rect x="123.74" y="250.13" width="53.586" height="8.0926" ry="1.092" stroke-linejoin="round" stroke-width="6.7037"/>
<ellipse cx="99.932" cy="161.84" rx="15.421" ry="10.562" stroke-width="10.444"/>
<path d="m130.73 219.37c2.0004 0 37.508 1.1366 37.508 1.1366s-19.004 22.354-21.505 21.596c-2.5005-0.75776-16.003-22.733-16.003-22.733z" fill-rule="evenodd" stroke-linecap="round" stroke-linejoin="round" stroke-width="10.444"/>
</g>
</svg>
