<svg width="210mm" height="297mm" version="1.1" viewBox="0 0 744.09448819 1052.3622047" xmlns="http://www.w3.org/2000/svg">
<g fill="#fafafa" stroke="#7d7b7b">
<path d="m569.68 254.42a86.339 114.14 0 0 1 -85.445 114.14 86.339 114.14 0 0 1 -87.215 -111.77 86.339 114.14 0 0 1 83.638 -116.45 86.339 114.14 0 0 1 88.947 109.36" stroke-linecap="round" stroke-linejoin="round" stroke-width="12"/>
<path d="m469.24 43.866s-42.685 33.178-53.408 83.05c-7.9702 54.411 28.154 101.81 28.154 101.81l-61.619-57.579s-2.0203-40.02 19.193-68.305c18.287-35.995 67.68-58.975 67.68-58.975z" fill-rule="evenodd" stroke-linecap="round" stroke-linejoin="round" stroke-width="12"/>
<path d="m264.23 48.818s42.685 33.178 53.408 83.05c7.9702 54.411-28.154 101.81-28.154 101.81l61.619-57.579s2.0203-40.02-19.193-68.305c-18.287-35.995-67.68-58.975-67.68-58.975z" fill-rule="evenodd" stroke-linecap="round" stroke-linejoin="round" stroke-width="12"/>
<path d="m443.14 211.65c0.71429 2.8572-7.0294 45.144 7.1429 42.143l25-30 15.9-17.016 24.814-26.555c-38.571 4.2857-72.857 31.429-72.857 31.429z" fill-rule="evenodd" stroke-linecap="round" stroke-linejoin="round" stroke-width="12"/>
<path d="m291.55 204.38c-0.71429 2.8572 7.0294 45.144-7.1429 42.143l-25-30-15.9-17.016-24.814-26.555c38.571 4.2857 72.857 31.429 72.857 31.429z" fill-rule="evenodd" stroke-linecap="round" stroke-linejoin="round" stroke-width="12"/>
<path d="m446.97 257.91c-7.6356 28.685-20.062 40.466-31.025 59.026-10.941 18.523-25.567 38.915-45.592 44.537-1.9749 0.55447-0.42069 0.13533-2.4697 0.13533-29.598 0-29.084-6.6948-50.729-42.673-13.225-21.984-24.012-26.111-32.289-57.773-14.847-56.796 28.327-83.487 73.977-83.487 45.651 0 102.12 27.664 88.127 80.234z" stroke-width="12"/>
<path d="m332.32 376.75c0 5.0508 13.132 67.68 13.132 67.68s16.162-29.294 14.142-25.254c-2.0203 4.0406 5.0508 58.589 5.0508 58.589s12.122-89.904 10.102-84.853c-2.0203 5.0508 11.112 64.65 11.112 60.609s11.112-71.721 11.112-71.721l-37.376 6.0609z" fill-rule="evenodd" stroke-width="12"/>
<ellipse cx="364.81" cy="342.17" rx="39.181" ry="53.064" stroke-width="12"/>
<ellipse cx="420.53" cy="240.68" rx="16.162" ry="13.305" stroke-width="12"/>
<rect x="336.73" y="348.16" width="56.163" height="10.195" ry="1.3756" stroke-linejoin="round" stroke-width="7.7029"/>
<ellipse cx="311.78" cy="236.94" rx="16.162" ry="13.305" stroke-width="12"/>
<path d="m344.06 309.42c2.0966 0 39.312 1.4319 39.312 1.4319s-19.918 28.16-22.539 27.206c-2.6208-0.95457-16.773-28.638-16.773-28.638z" fill-rule="evenodd" stroke-linecap="round" stroke-linejoin="round" stroke-width="12"/>
</g>
</svg>
